<?xml version="1.0"?>
<svg xmlns="http://www.w3.org/2000/svg" xmlns:xlink="http://www.w3.org/1999/xlink" xmlns:svgjs="http://svgjs.com/svgjs" version="1.1" width="512" height="512" x="0" y="0" viewBox="0 0 448 448" style="enable-background:new 0 0 512 512" xml:space="preserve" class=""><g transform="matrix(1,0,0,1,0,85)"><path xmlns="http://www.w3.org/2000/svg" d="m56 144c0-4.417969 3.582031-8 8-8h20c6.628906 0 12 5.371094 12 12s-5.371094 12-12 12h-20c-4.417969 0-8-3.582031-8-8zm16 40c0-4.417969 3.582031-8 8-8h20c6.628906 0 12 5.371094 12 12s-5.371094 12-12 12h-20c-4.417969 0-8-3.582031-8-8zm16 40c0-4.417969 3.582031-8 8-8h20c6.628906 0 12 5.371094 12 12s-5.371094 12-12 12h-20c-4.417969 0-8-3.582031-8-8zm44 56h-20c-4.417969 0-8-3.582031-8-8v-8c0-4.417969 3.582031-8 8-8h20c6.628906 0 12 5.371094 12 12s-5.371094 12-12 12zm180-16h-11.71875l-29.601562-44.441406-13.3125 8.882812 23.6875 35.558594h-28.796876l-29.601562-44.441406-13.3125 8.882812 23.710938 35.558594h-28.796876l-29.601562-44.441406-13.3125 8.882812 23.710938 35.558594h-16.574219c-3.175781-.058594-6.304688-.769531-9.191407-2.089844-2.210937-9.691406-9.394531-17.484375-18.875-20.476562 4.132813-7.292969 4.726563-16.066406 1.617188-23.847656-3.113281-7.78125-9.59375-13.722657-17.617188-16.152344 4.132813-7.292969 4.726563-16.066406 1.617188-23.847656-3.113281-7.78125-9.59375-13.722657-17.617188-16.152344 2.320313-4.101563 3.550782-8.722656 3.585938-13.433594 0-15.464844-12.535156-28-28-28h-20c-3.207031-.003906-6.382812.636719-9.335938 1.886719l-16.167968-22.550781c-1.503906-2.09375-3.921875-3.335938-6.496094-3.335938h-32v-96h109.257812l62.300782 48.433594c-15.804688 2.117187-27.589844 15.621094-27.558594 31.566406 0 17.671875 14.328125 32 32 32h75.289062l77.511719 139.535156c-2.28125 7.375-9.082031 12.421875-16.800781 12.464844zm136-24h-107.296875l-22.222656-40h41.519531v-16h-50.398438l-46.640624-83.945312c-1.421876-2.503907-4.078126-4.054688-6.960938-4.054688h-80c-8.835938 0-16-7.164062-16-16s7.164062-16 16-16h85.601562l117.984376 78.65625c1.308593.871094 2.84375 1.335938 4.414062 1.34375h64zm0 0" fill="#ffffff" data-original="#000000" style="" class=""/></g></svg>
